name rise49.25peak52.1432fall72.8391.mot
datacolumns 19
datarows 27
range 10.09996300000000 10.14329500000000
endheader
time	ground_force1_vx	ground_force1_vy	ground_force1_vz	ground_force1_px	ground_force1_py	ground_force1_pz	ground_force2_vx	ground_force2_vy	ground_force2_vz	ground_force2_px	ground_force2_py	ground_force2_pz	ground_torque1_x	ground_torque1_y	ground_torque1_z	ground_torque2_x	ground_torque2_y	ground_torque2_z	
10.09996300000000	6.62327200000000	708.95221800000002	52.01321200000000	0.21026000000000	0.00000000000000	0.14488400000000	0.00000000000000	0.00000000000000	0.00000000000000	0.00000000000000	0.00000000000000	0.00000000000000	0.00000000000000	19.51821800000000	0.00000000000000	0.00000000000000	0.00000000000000	0.00000000000000	
10.10162800000000	6.19479400000000	710.15529400000003	52.04694400000000	0.20940200000000	0.00000000000000	0.14478600000000	0.00000000000000	0.00000000000000	0.00000000000000	0.00000000000000	0.00000000000000	0.00000000000000	0.00000000000000	19.59788800000000	0.00000000000000	0.00000000000000	0.00000000000000	0.00000000000000	
10.10329200000000	5.75311300000000	711.38607999999999	52.08422400000000	0.20850600000000	0.00000000000000	0.14469000000000	0.00000000000000	0.00000000000000	0.00000000000000	0.00000000000000	0.00000000000000	0.00000000000000	0.00000000000000	19.68068900000000	0.00000000000000	0.00000000000000	0.00000000000000	0.00000000000000	
10.10496500000000	5.29846000000000	712.64290600000004	52.12485100000000	0.20757200000000	0.00000000000000	0.14459500000000	0.00000000000000	0.00000000000000	0.00000000000000	0.00000000000000	0.00000000000000	0.00000000000000	0.00000000000000	19.76651800000000	0.00000000000000	0.00000000000000	0.00000000000000	0.00000000000000	
10.10662500000000	4.83113300000000	713.92413799999997	52.16863100000000	0.20660200000000	0.00000000000000	0.14450100000000	0.00000000000000	0.00000000000000	0.00000000000000	0.00000000000000	0.00000000000000	0.00000000000000	0.00000000000000	19.85527400000000	0.00000000000000	0.00000000000000	0.00000000000000	0.00000000000000	
10.10829100000000	4.35148600000000	715.22817699999996	52.21537700000000	0.20559600000000	0.00000000000000	0.14440900000000	0.00000000000000	0.00000000000000	0.00000000000000	0.00000000000000	0.00000000000000	0.00000000000000	0.00000000000000	19.94685500000000	0.00000000000000	0.00000000000000	0.00000000000000	0.00000000000000	
10.10996300000000	3.85993200000000	716.55346199999997	52.26490900000000	0.20455700000000	0.00000000000000	0.14431800000000	0.00000000000000	0.00000000000000	0.00000000000000	0.00000000000000	0.00000000000000	0.00000000000000	0.00000000000000	20.04116200000000	0.00000000000000	0.00000000000000	0.00000000000000	0.00000000000000	
10.11162900000000	3.35694100000000	717.89846699999998	52.31705500000000	0.20348800000000	0.00000000000000	0.14422900000000	0.00000000000000	0.00000000000000	0.00000000000000	0.00000000000000	0.00000000000000	0.00000000000000	0.00000000000000	20.13809200000000	0.00000000000000	0.00000000000000	0.00000000000000	0.00000000000000	
10.11328900000000	2.84303200000000	719.26170100000002	52.37165200000000	0.20238900000000	0.00000000000000	0.14414000000000	0.00000000000000	0.00000000000000	0.00000000000000	0.00000000000000	0.00000000000000	0.00000000000000	0.00000000000000	20.23754700000000	0.00000000000000	0.00000000000000	0.00000000000000	0.00000000000000	
10.11495900000000	2.31877200000000	720.64171499999998	52.42854500000000	0.20126500000000	0.00000000000000	0.14405300000000	0.00000000000000	0.00000000000000	0.00000000000000	0.00000000000000	0.00000000000000	0.00000000000000	0.00000000000000	20.33942500000000	0.00000000000000	0.00000000000000	0.00000000000000	0.00000000000000	
10.11662800000000	1.78477400000000	722.03709000000003	52.48758700000000	0.20011600000000	0.00000000000000	0.14396700000000	0.00000000000000	0.00000000000000	0.00000000000000	0.00000000000000	0.00000000000000	0.00000000000000	0.00000000000000	20.44362500000000	0.00000000000000	0.00000000000000	0.00000000000000	0.00000000000000	
10.11829400000000	1.24169100000000	723.44644800000003	52.54864100000000	0.19894600000000	0.00000000000000	0.14388200000000	0.00000000000000	0.00000000000000	0.00000000000000	0.00000000000000	0.00000000000000	0.00000000000000	0.00000000000000	20.55004600000000	0.00000000000000	0.00000000000000	0.00000000000000	0.00000000000000	
10.11995700000000	0.69021200000000	724.86844299999996	52.61157700000000	0.19775900000000	0.00000000000000	0.14379700000000	0.00000000000000	0.00000000000000	0.00000000000000	0.00000000000000	0.00000000000000	0.00000000000000	0.00000000000000	20.65858600000000	0.00000000000000	0.00000000000000	0.00000000000000	0.00000000000000	
10.12163100000000	0.13105900000000	726.30176700000004	52.67627700000000	0.19655600000000	0.00000000000000	0.14371400000000	0.00000000000000	0.00000000000000	0.00000000000000	0.00000000000000	0.00000000000000	0.00000000000000	0.00000000000000	20.76914100000000	0.00000000000000	0.00000000000000	0.00000000000000	0.00000000000000	
10.12329500000000	-0.43502000000000	727.74514499999998	52.74262900000000	0.19534000000000	0.00000000000000	0.14363000000000	0.00000000000000	0.00000000000000	0.00000000000000	0.00000000000000	0.00000000000000	0.00000000000000	0.00000000000000	20.88160900000000	0.00000000000000	0.00000000000000	0.00000000000000	0.00000000000000	
10.12496300000000	-1.00725100000000	729.19733299999996	52.81053100000000	0.19411600000000	0.00000000000000	0.14354800000000	0.00000000000000	0.00000000000000	0.00000000000000	0.00000000000000	0.00000000000000	0.00000000000000	0.00000000000000	20.99588200000000	0.00000000000000	0.00000000000000	0.00000000000000	0.00000000000000	
10.12662600000000	-1.58484300000000	730.65712299999996	52.87989100000000	0.19288500000000	0.00000000000000	0.14346500000000	0.00000000000000	0.00000000000000	0.00000000000000	0.00000000000000	0.00000000000000	0.00000000000000	0.00000000000000	21.11185300000000	0.00000000000000	0.00000000000000	0.00000000000000	0.00000000000000	
10.12829200000000	-2.16699000000000	732.12333500000000	52.95062500000000	0.19165100000000	0.00000000000000	0.14338300000000	0.00000000000000	0.00000000000000	0.00000000000000	0.00000000000000	0.00000000000000	0.00000000000000	0.00000000000000	21.22941500000000	0.00000000000000	0.00000000000000	0.00000000000000	0.00000000000000	
10.12995900000000	-2.75287600000000	733.59482100000002	53.02265800000000	0.19041800000000	0.00000000000000	0.14330100000000	0.00000000000000	0.00000000000000	0.00000000000000	0.00000000000000	0.00000000000000	0.00000000000000	0.00000000000000	21.34845600000000	0.00000000000000	0.00000000000000	0.00000000000000	0.00000000000000	
10.13162500000000	-3.34168000000000	735.07046100000002	53.09592300000000	0.18918700000000	0.00000000000000	0.14321900000000	0.00000000000000	0.00000000000000	0.00000000000000	0.00000000000000	0.00000000000000	0.00000000000000	0.00000000000000	21.46886300000000	0.00000000000000	0.00000000000000	0.00000000000000	0.00000000000000	
10.13329000000000	-3.93257900000000	736.54916200000002	53.17036300000000	0.18796200000000	0.00000000000000	0.14313700000000	0.00000000000000	0.00000000000000	0.00000000000000	0.00000000000000	0.00000000000000	0.00000000000000	0.00000000000000	21.59052000000000	0.00000000000000	0.00000000000000	0.00000000000000	0.00000000000000	
10.13496100000000	-4.52475700000000	738.02985699999999	53.24592600000000	0.18674600000000	0.00000000000000	0.14305500000000	0.00000000000000	0.00000000000000	0.00000000000000	0.00000000000000	0.00000000000000	0.00000000000000	0.00000000000000	21.71330900000000	0.00000000000000	0.00000000000000	0.00000000000000	0.00000000000000	
10.13662900000000	-5.11740200000000	739.51150399999995	53.32257200000000	0.18554200000000	0.00000000000000	0.14297200000000	0.00000000000000	0.00000000000000	0.00000000000000	0.00000000000000	0.00000000000000	0.00000000000000	0.00000000000000	21.83711000000000	0.00000000000000	0.00000000000000	0.00000000000000	0.00000000000000	
10.13829700000000	-5.70971600000000	740.99308499999995	53.40026700000000	0.18435200000000	0.00000000000000	0.14288900000000	0.00000000000000	0.00000000000000	0.00000000000000	0.00000000000000	0.00000000000000	0.00000000000000	0.00000000000000	21.96179900000000	0.00000000000000	0.00000000000000	0.00000000000000	0.00000000000000	
10.13996200000000	-6.30091600000000	742.47360100000003	53.47898200000000	0.18317900000000	0.00000000000000	0.14280500000000	0.00000000000000	0.00000000000000	0.00000000000000	0.00000000000000	0.00000000000000	0.00000000000000	0.00000000000000	22.08725100000000	0.00000000000000	0.00000000000000	0.00000000000000	0.00000000000000	
10.14163100000000	-6.89024100000000	743.95207500000004	53.55869900000000	0.18202400000000	0.00000000000000	0.14272100000000	0.00000000000000	0.00000000000000	0.00000000000000	0.00000000000000	0.00000000000000	0.00000000000000	0.00000000000000	22.21333500000000	0.00000000000000	0.00000000000000	0.00000000000000	0.00000000000000	
10.14329500000000	-7.47695300000000	745.42754800000000	53.63940200000000	0.18089100000000	0.00000000000000	0.14263600000000	0.00000000000000	0.00000000000000	0.00000000000000	0.00000000000000	0.00000000000000	0.00000000000000	0.00000000000000	22.33992000000000	0.00000000000000	0.00000000000000	0.00000000000000	0.00000000000000	
